# This file uses centimeters as units for non-parametric coordinates.

mtllib StraightBlock.mtl
g default
v -0.500000 -0.500000 0.500000
v 0.500000 -0.500000 0.500000
v -0.500000 0.500000 0.500000
v 0.500000 0.500000 0.500000
v -0.500000 0.500000 -0.500000
v 0.500000 0.500000 -0.500000
v -0.500000 -0.500000 -0.500000
v 0.500000 -0.500000 -0.500000
v 0.000000 0.500000 0.500000
v 0.000000 0.500000 -0.500000
v 0.000000 -0.500000 -0.500000
v 0.000000 -0.500000 0.500000
v 0.000000 0.500000 -0.000000
v -0.500000 0.500000 -0.000000
v -0.500000 -0.500000 -0.000000
v 0.000000 -0.500000 -0.000000
v 0.500000 -0.500000 -0.000000
v 0.500000 0.500000 -0.000000
v -0.250000 0.500000 0.500000
v -0.250000 0.500000 -0.000000
v -0.250000 0.500000 -0.500000
v -0.250000 -0.500000 -0.500000
v -0.250000 -0.500000 -0.000000
v -0.250000 -0.500000 0.500000
v 0.250000 0.500000 0.500000
v 0.250000 0.500000 -0.000000
v 0.250000 0.500000 -0.500000
v 0.250000 -0.500000 -0.500000
v 0.250000 -0.500000 -0.000000
v 0.250000 -0.500000 0.500000
v -0.250000 0.500000 0.250000
v -0.500000 0.500000 0.250000
v -0.500000 -0.500000 0.250000
v -0.250000 -0.500000 0.250000
v 0.000000 -0.500000 0.250000
v 0.250000 -0.500000 0.250000
v 0.500000 -0.500000 0.250000
v 0.500000 0.500000 0.250000
v 0.250000 0.500000 0.250000
v 0.000000 0.500000 0.250000
v -0.500000 0.500000 -0.250000
v -0.500000 -0.500000 -0.250000
v -0.250000 -0.500000 -0.250000
v 0.000000 -0.500000 -0.250000
v 0.250000 -0.500000 -0.250000
v 0.500000 -0.500000 -0.250000
v 0.500000 0.500000 -0.250000
v 0.250000 0.500000 -0.250000
v 0.000000 0.500000 -0.250000
v -0.250000 0.500000 -0.250000
v -0.250000 0.570832 0.500000
v -0.318147 0.500000 0.500000
v -0.250000 0.500000 0.500000
v -0.181853 0.500000 0.500000
v -0.250000 0.570832 -0.500000
v -0.181853 0.500000 -0.500000
v -0.250000 0.500000 -0.500000
v -0.318147 0.500000 -0.500000
v -0.318147 0.537818 0.500000
v -0.285133 0.570832 0.500000
v -0.285133 0.570832 -0.500000
v -0.318147 0.537818 -0.500000
v -0.214867 0.570832 0.500000
v -0.181853 0.537818 0.500000
v -0.181853 0.537818 -0.500000
v -0.214867 0.570832 -0.500000
v -0.250000 0.537818 0.500000
v -0.250000 0.537818 -0.500000
v 0.250000 0.570832 0.500000
v 0.181853 0.500000 0.500000
v 0.250000 0.500000 0.500000
v 0.318147 0.500000 0.500000
v 0.250000 0.570832 -0.500000
v 0.318147 0.500000 -0.500000
v 0.250000 0.500000 -0.500000
v 0.181853 0.500000 -0.500000
v 0.181853 0.537818 0.500000
v 0.214867 0.570832 0.500000
v 0.214867 0.570832 -0.500000
v 0.181853 0.537818 -0.500000
v 0.285133 0.570832 0.500000
v 0.318147 0.537818 0.500000
v 0.318147 0.537818 -0.500000
v 0.285133 0.570832 -0.500000
v 0.250000 0.537818 0.500000
v 0.250000 0.537818 -0.500000
v -0.500000 -0.000000 0.500000
v -0.500000 -0.000000 0.250000
v -0.500000 -0.000000 -0.000000
v -0.500000 -0.000000 -0.250000
v -0.500000 -0.000000 -0.500000
v -0.250000 -0.000000 -0.500000
v 0.000000 -0.000000 -0.500000
v 0.250000 -0.000000 -0.500000
v 0.500000 -0.000000 -0.500000
v 0.500000 -0.000000 -0.250000
v 0.500000 -0.000000 -0.000000
v 0.500000 -0.000000 0.250000
v 0.500000 -0.000000 0.500000
v 0.250000 -0.000000 0.500000
v 0.000000 -0.000000 0.500000
v -0.250000 -0.000000 0.500000
vt 0.000000 0.000000
vt 0.250000 0.000000
vt 0.250000 1.000000
vt 0.000000 1.000000
vt 0.000000 0.000000
vt 0.250000 0.000000
vt 0.000000 1.000000
vt 0.250000 1.000000
vt 0.250000 0.000000
vt 0.000000 0.000000
vt 0.250000 0.250000
vt 0.000000 0.250000
vt 1.000000 0.000000
vt 0.000000 0.250000
vt 0.250000 0.250000
vt 1.000000 1.000000
vt 0.500000 1.000000
vt 0.750000 1.000000
vt 0.250000 0.000000
vt 0.000000 0.000000
vt 0.500000 0.000000
vt 0.500000 1.000000
vt 0.750000 1.000000
vt 0.750000 0.000000
vt 0.500000 0.000000
vt 0.500000 0.000000
vt 0.750000 0.000000
vt 0.750000 0.000000
vt 0.750000 0.250000
vt 0.500000 0.250000
vt 0.500000 0.000000
vt 0.500000 0.250000
vt 0.750000 0.250000
vt 0.750000 0.000000
vt 0.000000 0.500000
vt 0.250000 0.500000
vt 0.250000 0.750000
vt 0.000000 0.750000
vt 0.000000 0.750000
vt 0.250000 0.750000
vt 0.250000 0.500000
vt 0.000000 0.500000
vt 0.750000 0.500000
vt 0.500000 0.500000
vt 0.500000 0.750000
vt 0.750000 0.750000
vt 0.500000 0.500000
vt 0.750000 0.500000
vt 1.000000 1.000000
vt 1.000000 0.000000
vt 0.000000 0.500000
vt 0.000000 1.000000
vt -0.500000 1.000000
vt -0.500000 0.500000
vt 0.000000 0.000000
vt -0.500000 0.000000
vt -1.000000 0.500000
vt 1.000000 1.000000
vt 1.000000 1.000000
vt -1.000000 1.000000
vt 1.000000 0.000000
vt 1.000000 0.000000
vt 0.000000 1.000000
vt 0.000000 1.000000
vt 1.000000 0.757774
vt 0.000000 0.757774
vt 0.000000 0.500000
vt 1.000000 0.500000
vt 0.000000 0.242226
vt 1.000000 0.242226
vt 0.000000 0.000000
vt 0.000000 0.000000
vt -1.000000 1.000000
vt -1.000000 0.500000
vt -1.000000 0.000000
vt -0.500000 1.000000
vt 0.000000 0.000000
vt 0.000000 0.000000
vt -0.500000 0.500000
vt 0.000000 1.000000
vt 0.000000 1.000000
vt -1.000000 0.000000
vt 1.000000 1.000000
vt 1.000000 1.000000
vt -0.500000 0.000000
vt 1.000000 0.000000
vt 1.000000 0.000000
vt 1.000000 0.757774
vt 0.000000 0.757774
vt 0.000000 0.500000
vt 1.000000 0.500000
vt 0.000000 0.242226
vt 1.000000 0.242226
vt 0.000000 1.000000
vt 0.000000 0.500000
vt -0.000000 0.000000
vt 0.000000 0.500000
vt 0.000000 1.000000
vt -0.500000 1.000000
vt -0.500000 0.500000
vt 0.000000 0.000000
vt -0.500000 0.000000
vt -1.000000 0.500000
vt -1.000000 1.000000
vt -0.500000 1.000000
vt -0.500000 0.500000
vt -1.000000 0.000000
vt -0.500000 0.000000
vt -1.000000 1.000000
vt -1.000000 0.500000
vt -1.000000 0.000000
vt 0.000000 1.000000
vt 0.000000 0.500000
vt 0.000000 0.000000
vt 0.000000 0.000000
vt 0.250000 0.000000
vt 0.250000 1.000000
vt 0.000000 1.000000
vt 0.250000 0.000000
vt 0.000000 0.000000
vt 0.000000 1.000000
vt 0.250000 1.000000
vt 0.750000 0.000000
vt 0.500000 0.000000
vt 0.500000 1.000000
vt 0.750000 1.000000
vt 0.500000 1.000000
vt 0.500000 0.000000
vt 0.750000 0.000000
vt 0.750000 1.000000
vt 1.000000 0.000000
vt 1.000000 1.000000
vt 1.000000 0.000000
vt 1.000000 1.000000
vt 0.750000 0.750000
vt 0.500000 0.750000
vt 1.000000 0.000000
vt 1.000000 0.250000
vt 1.000000 0.500000
vt 1.000000 0.750000
vt 1.000000 0.500000
vt 1.000000 0.750000
vt 1.000000 0.250000
vt 1.000000 0.000000
vt 0.000000 1.000000
vt 0.250000 1.000000
vt 0.500000 1.000000
vt 0.750000 1.000000
vt 1.000000 1.000000
vt 0.750000 1.000000
vt 1.000000 1.000000
vt 0.500000 1.000000
vt 0.250000 1.000000
vt 0.000000 1.000000
vt 0.000000 0.500000
vt 0.000000 0.500000
vt 0.250000 0.500000
vt 0.500000 0.500000
vt 0.750000 0.500000
vt 1.000000 0.500000
vt 0.000000 0.500000
vt 0.250000 0.500000
vt 0.500000 0.500000
vt 0.750000 0.500000
vt 1.000000 0.500000
vt 1.000000 0.500000
vt 0.750000 0.500000
vt 0.500000 0.500000
vt 0.250000 0.500000
vt 1.000000 0.500000
vt 0.000000 0.500000
vt 0.750000 0.500000
vt 0.500000 0.500000
vt 0.250000 0.500000
vn 0.000000 0.000000 1.000000
vn 0.000000 0.000000 1.000000
vn 0.000000 0.000000 1.000000
vn 0.000000 0.000000 1.000000
vn 0.000000 1.000000 0.000000
vn 0.000000 1.000000 0.000000
vn 0.000000 1.000000 0.000000
vn 0.000000 1.000000 0.000000
vn 0.000000 0.000000 -1.000000
vn 0.000000 0.000000 -1.000000
vn 0.000000 0.000000 -1.000000
vn 0.000000 0.000000 -1.000000
vn 0.000000 -1.000000 0.000000
vn 0.000000 -1.000000 0.000000
vn 0.000000 -1.000000 0.000000
vn 0.000000 -1.000000 0.000000
vn 1.000000 0.000000 0.000000
vn 1.000000 0.000000 0.000000
vn 1.000000 0.000000 0.000000
vn 1.000000 0.000000 0.000000
vn -1.000000 0.000000 0.000000
vn -1.000000 0.000000 0.000000
vn -1.000000 0.000000 0.000000
vn -1.000000 0.000000 0.000000
vn 0.000000 1.000000 0.000000
vn 0.000000 1.000000 0.000000
vn 0.000000 1.000000 0.000000
vn 0.000000 1.000000 0.000000
vn 0.000000 0.000000 -1.000000
vn 0.000000 0.000000 -1.000000
vn 0.000000 0.000000 -1.000000
vn 0.000000 0.000000 -1.000000
vn 0.000000 -1.000000 0.000000
vn 0.000000 -1.000000 0.000000
vn 0.000000 -1.000000 0.000000
vn 0.000000 -1.000000 0.000000
vn 0.000000 0.000000 1.000000
vn 0.000000 0.000000 1.000000
vn 0.000000 0.000000 1.000000
vn 0.000000 0.000000 1.000000
vn 0.000000 1.000000 0.000000
vn 0.000000 1.000000 0.000000
vn 0.000000 1.000000 0.000000
vn 0.000000 1.000000 0.000000
vn -1.000000 0.000000 0.000000
vn -1.000000 0.000000 0.000000
vn -1.000000 0.000000 0.000000
vn -1.000000 0.000000 0.000000
vn 0.000000 -1.000000 0.000000
vn 0.000000 -1.000000 0.000000
vn 0.000000 -1.000000 0.000000
vn 0.000000 -1.000000 0.000000
vn 0.000000 -1.000000 0.000000
vn 0.000000 -1.000000 0.000000
vn 0.000000 -1.000000 0.000000
vn 0.000000 -1.000000 0.000000
vn 1.000000 0.000000 0.000000
vn 1.000000 0.000000 0.000000
vn 1.000000 0.000000 0.000000
vn 1.000000 0.000000 0.000000
vn 0.000000 1.000000 0.000000
vn 0.000000 1.000000 0.000000
vn 0.000000 1.000000 0.000000
vn 0.000000 1.000000 0.000000
vn 0.000000 1.000000 0.000000
vn 0.000000 1.000000 0.000000
vn 0.000000 1.000000 0.000000
vn 0.000000 1.000000 0.000000
vn 0.000000 0.000000 -1.000000
vn 0.000000 0.000000 -1.000000
vn 0.000000 -1.000000 0.000000
vn 0.000000 -1.000000 0.000000
vn 0.000000 -1.000000 0.000000
vn 0.000000 -1.000000 0.000000
vn 0.000000 0.000000 1.000000
vn 0.000000 0.000000 1.000000
vn -1.000000 0.000000 0.000000
vn -1.000000 0.000000 0.000000
vn 0.000000 -1.000000 0.000000
vn 0.000000 -1.000000 0.000000
vn 0.000000 -1.000000 0.000000
vn 0.000000 -1.000000 0.000000
vn 0.000000 -1.000000 0.000000
vn 1.000000 0.000000 0.000000
vn 1.000000 0.000000 0.000000
vn 0.000000 1.000000 0.000000
vn 0.000000 1.000000 0.000000
vn 0.000000 1.000000 0.000000
vn 0.000000 1.000000 0.000000
vn 0.000000 1.000000 0.000000
vn 0.000000 0.000000 1.000000
vn 0.000000 0.000000 1.000000
vn 0.000000 0.000000 1.000000
vn 0.000000 0.000000 1.000000
vn 0.000000 0.000000 1.000000
vn 0.000000 0.000000 1.000000
vn 0.000000 0.000000 -1.000000
vn 0.000000 0.000000 -1.000000
vn 0.000000 0.000000 -1.000000
vn 0.000000 0.000000 -1.000000
vn 0.000000 0.000000 -1.000000
vn 0.000000 0.000000 -1.000000
vn -1.000000 0.000000 0.000000
vn -1.000000 0.000000 0.000000
vn -1.000000 0.000000 0.000000
vn -1.000000 0.000000 0.000000
vn 0.000000 1.000000 0.000000
vn 0.000000 1.000000 0.000000
vn 0.000000 1.000000 0.000000
vn 0.000000 1.000000 0.000000
vn 0.000000 1.000000 0.000000
vn 0.000000 1.000000 0.000000
vn 0.000000 1.000000 0.000000
vn 0.000000 1.000000 0.000000
vn 1.000000 0.000000 0.000000
vn 1.000000 0.000000 0.000000
vn 1.000000 0.000000 0.000000
vn 1.000000 0.000000 0.000000
vn -0.707105 0.707108 0.000000
vn -0.707105 0.707108 0.000000
vn -0.707105 0.707108 0.000000
vn -0.707105 0.707108 0.000000
vn 0.707105 0.707108 0.000000
vn 0.707105 0.707108 0.000000
vn 0.707105 0.707108 0.000000
vn 0.707105 0.707108 0.000000
vn 0.000000 0.000000 1.000000
vn 0.000000 0.000000 1.000000
vn 0.000000 0.000000 1.000000
vn 0.000000 0.000000 -1.000000
vn 0.000000 0.000000 -1.000000
vn 0.000000 0.000000 -1.000000
vn 0.000000 0.000000 1.000000
vn 0.000000 0.000000 1.000000
vn 0.000000 0.000000 1.000000
vn 0.000000 0.000000 1.000000
vn 0.000000 0.000000 1.000000
vn 0.000000 0.000000 1.000000
vn 0.000000 0.000000 -1.000000
vn 0.000000 0.000000 -1.000000
vn 0.000000 0.000000 -1.000000
vn 0.000000 0.000000 -1.000000
vn 0.000000 0.000000 -1.000000
vn 0.000000 0.000000 -1.000000
vn -1.000000 0.000000 0.000000
vn -1.000000 0.000000 0.000000
vn -1.000000 0.000000 0.000000
vn -1.000000 0.000000 0.000000
vn 0.000000 1.000000 0.000000
vn 0.000000 1.000000 0.000000
vn 0.000000 1.000000 0.000000
vn 0.000000 1.000000 0.000000
vn 0.000000 1.000000 0.000000
vn 0.000000 1.000000 0.000000
vn 0.000000 1.000000 0.000000
vn 0.000000 1.000000 0.000000
vn 1.000000 0.000000 0.000000
vn 1.000000 0.000000 0.000000
vn 1.000000 0.000000 0.000000
vn 1.000000 0.000000 0.000000
vn -0.707105 0.707108 0.000000
vn -0.707105 0.707108 0.000000
vn -0.707105 0.707108 0.000000
vn -0.707105 0.707108 0.000000
vn 0.707105 0.707108 0.000000
vn 0.707105 0.707108 0.000000
vn 0.707105 0.707108 0.000000
vn 0.707105 0.707108 0.000000
vn 0.000000 0.000000 1.000000
vn 0.000000 0.000000 1.000000
vn 0.000000 0.000000 1.000000
vn 0.000000 0.000000 -1.000000
vn 0.000000 0.000000 -1.000000
vn 0.000000 0.000000 -1.000000
vn -1.000000 0.000000 0.000000
vn -1.000000 0.000000 0.000000
vn -1.000000 0.000000 0.000000
vn -1.000000 0.000000 0.000000
vn -1.000000 0.000000 0.000000
vn 0.000000 0.000000 -1.000000
vn 0.000000 0.000000 -1.000000
vn 0.000000 0.000000 -1.000000
vn 0.000000 0.000000 -1.000000
vn 0.000000 0.000000 -1.000000
vn 1.000000 0.000000 0.000000
vn 1.000000 0.000000 0.000000
vn 1.000000 0.000000 0.000000
vn 1.000000 0.000000 0.000000
vn 1.000000 0.000000 0.000000
vn 0.000000 0.000000 1.000000
vn 0.000000 0.000000 1.000000
vn 0.000000 0.000000 1.000000
vn 0.000000 0.000000 1.000000
vn 0.000000 0.000000 1.000000
s 1
g polySurface6
usemtl lambert3SG
f 1/1/1 24/2/2 102/174/3 87/156/4
s 2
f 3/5/5 19/6/6 31/11/7 32/12/8
s 3
f 91/161/9 92/162/10 22/9/11 7/10/12
s 4
f 33/14/13 34/15/14 24/19/15 1/20/16
s 5
f 2/115/17 37/116/18 98/169/19 99/171/20
s 6
f 33/119/21 1/120/22 87/155/23 88/157/24
s 2
f 9/26/25 25/27/26 39/29/27 40/30/28
s 3
f 11/21/29 93/163/30 94/164/31 28/24/32
s 4
f 12/31/33 35/32/34 36/33/35 30/34/36
s 1
f 101/173/37 12/25/38 30/28/39 100/172/40
s 2
f 14/35/41 20/36/42 50/37/43 41/38/44
s 6
f 42/123/45 15/124/46 89/158/47 90/159/48
s 4
f 42/39/49 43/40/50 23/41/51 15/42/52
f 29/43/53 16/44/54 44/45/55 45/46/56
s 5
f 97/168/57 17/128/58 46/129/59 96/167/60
s 2
f 13/47/61 26/48/62 48/135/63 49/136/64
f 19/6/6 9/26/25 40/30/28 31/11/7
f 50/37/43 20/36/42 13/47/61 49/136/64
s 3
f 22/9/11 92/162/10 93/163/30 11/21/29
s 4
f 23/41/51 43/40/50 44/45/55 16/44/54
f 24/19/15 34/15/14 35/32/34 12/31/33
s 1
f 102/174/3 24/2/2 12/25/38 101/173/37
s 2
f 25/27/26 4/137/65 38/138/66 39/29/27
f 48/135/63 26/48/62 18/139/67 47/140/68
s 3
f 28/24/32 94/164/31 95/165/69 8/50/70
s 4
f 17/141/71 29/43/53 45/46/56 46/142/72
f 30/34/36 36/33/35 37/143/73 2/144/74
s 1
f 100/172/40 30/28/39 2/13/75 99/170/76
s 2
f 32/12/8 31/11/7 20/36/42 14/35/41
s 6
f 15/124/46 33/119/21 88/157/24 89/158/47
s 4
f 15/42/52 23/41/51 34/15/14 33/14/13
f 35/32/34 34/15/14 23/41/51 16/44/54
f 36/33/35 35/32/34 16/44/54 29/43/53
f 37/143/73 36/33/35 29/43/53 17/141/71
s 5
f 98/169/19 37/116/18 17/128/58 97/168/57
s 2
f 39/29/27 38/138/66 18/139/67 26/48/62
f 40/30/28 39/29/27 26/48/62 13/47/61
f 31/11/7 40/30/28 13/47/61 20/36/42
s 6
f 7/131/77 42/123/45 90/159/48 91/160/78
s 4
f 7/145/79 22/146/80 43/40/50 42/39/49
f 44/45/55 43/40/50 22/146/80 11/147/81
f 45/46/56 44/45/55 11/147/81 28/148/82
f 46/142/72 45/46/56 28/148/82 8/149/83
s 5
f 96/167/60 46/129/59 8/133/84 95/166/85
s 2
f 27/150/86 48/135/63 47/140/68 6/151/87
f 49/136/64 48/135/63 27/150/86 10/152/88
f 21/153/89 50/37/43 49/136/64 10/152/88
f 41/38/44 50/37/43 21/153/89 5/154/90
s 9
usemtl lambert2SG
f 53/51/91 54/52/92 64/53/93 67/54/94
f 52/55/95 53/51/91 67/54/94 59/56/96
s 10
f 57/57/97 58/60/98 62/76/99 68/79/100
f 56/82/101 57/57/97 68/79/100 65/85/102
s off
f 52/63/103 59/64/104 62/59/105 58/58/106
f 61/65/107 60/66/108 51/67/109 55/68/110
f 51/67/111 63/69/112 66/70/113 55/68/114
f 65/62/115 64/71/116 54/72/117 56/61/118
f 59/64/119 60/66/120 61/65/121 62/59/122
f 63/69/123 64/71/124 65/62/125 66/70/126
s 9
f 67/54/94 64/53/93 63/73/127 51/74/128
f 59/56/96 67/54/94 51/74/128 60/75/129
s 10
f 68/79/100 62/76/99 61/94/130 55/95/131
f 65/85/102 68/79/100 55/95/131 66/96/132
s 11
f 71/97/133 72/98/134 82/99/135 85/100/136
f 70/101/137 71/97/133 85/100/136 77/102/138
s 12
f 75/103/139 76/104/140 80/105/141 86/106/142
f 74/107/143 75/103/139 86/106/142 83/108/144
s off
f 70/80/145 77/81/146 80/84/147 76/83/148
f 79/88/149 78/89/150 69/90/151 73/91/152
f 69/90/153 81/92/154 84/93/155 73/91/156
f 83/87/157 82/78/158 72/77/159 74/86/160
f 77/81/161 78/89/162 79/88/163 80/84/164
f 81/92/165 82/78/166 83/87/167 84/93/168
s 11
f 85/100/136 82/99/135 81/109/169 69/110/170
f 77/102/138 85/100/136 69/110/170 78/111/171
s 12
f 86/106/142 80/105/141 79/112/172 73/113/173
f 83/108/144 86/106/142 73/113/173 84/114/174
s 6
usemtl lambert3SG
f 88/157/24 87/155/23 3/121/175 32/122/176
f 89/158/47 88/157/24 32/122/176 14/125/177
f 90/159/48 89/158/47 14/125/177 41/126/178
f 91/160/78 90/159/48 41/126/178 5/132/179
s 3
f 5/7/180 21/8/181 92/162/10 91/161/9
f 93/163/30 92/162/10 21/8/181 10/22/182
f 94/164/31 93/163/30 10/22/182 27/23/183
f 95/165/69 94/164/31 27/23/183 6/49/184
s 5
f 47/130/185 96/167/60 95/166/85 6/134/186
f 18/127/187 97/168/57 96/167/60 47/130/185
f 38/117/188 98/169/19 97/168/57 18/127/187
f 99/171/20 98/169/19 38/117/188 4/118/189
s 1
f 25/18/190 100/172/40 99/170/76 4/16/191
f 9/17/192 101/173/37 100/172/40 25/18/190
f 19/3/193 102/174/3 101/173/37 9/17/192
f 87/156/4 102/174/3 19/3/193 3/4/194
